<svg xmlns="http://www.w3.org/2000/svg" xmlns:xlink="http://www.w3.org/1999/xlink" width="200" zoomAndPan="magnify" viewBox="0 0 150 187.499995" height="250" preserveAspectRatio="xMidYMid meet" version="1.0"><defs><clipPath id="96c0789925"><path d="M 0.199219 4 L 141 4 L 141 185 L 0.199219 185 Z M 0.199219 4 " clip-rule="nonzero"/></clipPath><clipPath id="b30c505927"><path d="M 70.765625 -29.015625 L 210.507812 38.941406 L 139.894531 184.140625 L 0.152344 116.183594 Z M 70.765625 -29.015625 " clip-rule="nonzero"/></clipPath><clipPath id="d97595bec7"><path d="M 140.636719 4.960938 L 139.9375 184.046875 L 0.199219 116.089844 Z M 140.636719 4.960938 " clip-rule="nonzero"/></clipPath><clipPath id="d62026e8cb"><path d="M 69.675781 81.710938 L 129.515625 81.710938 L 129.515625 141.550781 L 69.675781 141.550781 Z M 69.675781 81.710938 " clip-rule="nonzero"/></clipPath></defs><g clip-path="url(#96c0789925)"><g clip-path="url(#b30c505927)"><g clip-path="url(#d97595bec7)"><path fill="#7700ff" d="M 70.765625 -29.015625 L 210.507812 38.941406 L 139.894531 184.140625 L 0.152344 116.183594 Z M 70.765625 -29.015625 " fill-opacity="1" fill-rule="nonzero"/></g></g></g><g clip-path="url(#d62026e8cb)"><path fill="#ffce01" d="M 129.53125 111.644531 C 129.53125 112.625 129.480469 113.601562 129.386719 114.578125 C 129.289062 115.550781 129.144531 116.519531 128.953125 117.480469 C 128.761719 118.441406 128.527344 119.390625 128.242188 120.328125 C 127.957031 121.265625 127.625 122.1875 127.25 123.09375 C 126.875 124 126.457031 124.882812 125.996094 125.75 C 125.535156 126.613281 125.03125 127.453125 124.488281 128.269531 C 123.941406 129.082031 123.359375 129.867188 122.738281 130.625 C 122.117188 131.382812 121.457031 132.109375 120.765625 132.800781 C 120.074219 133.496094 119.347656 134.152344 118.589844 134.773438 C 117.832031 135.394531 117.046875 135.980469 116.230469 136.523438 C 115.417969 137.066406 114.578125 137.570312 113.710938 138.03125 C 112.847656 138.496094 111.964844 138.914062 111.058594 139.289062 C 110.152344 139.664062 109.230469 139.992188 108.292969 140.277344 C 107.355469 140.5625 106.40625 140.800781 105.445312 140.992188 C 104.484375 141.183594 103.515625 141.324219 102.539062 141.421875 C 101.566406 141.519531 100.585938 141.566406 99.605469 141.566406 C 98.625 141.566406 97.648438 141.519531 96.675781 141.421875 C 95.699219 141.324219 94.730469 141.183594 93.769531 140.992188 C 92.808594 140.800781 91.859375 140.5625 90.921875 140.277344 C 89.984375 139.992188 89.0625 139.664062 88.15625 139.289062 C 87.25 138.914062 86.367188 138.496094 85.5 138.03125 C 84.636719 137.570312 83.796875 137.066406 82.984375 136.523438 C 82.167969 135.980469 81.382812 135.394531 80.625 134.773438 C 79.867188 134.152344 79.140625 133.496094 78.449219 132.800781 C 77.753906 132.109375 77.097656 131.382812 76.476562 130.625 C 75.855469 129.867188 75.273438 129.082031 74.726562 128.269531 C 74.183594 127.453125 73.679688 126.613281 73.21875 125.75 C 72.753906 124.882812 72.335938 124 71.960938 123.09375 C 71.585938 122.1875 71.257812 121.265625 70.972656 120.328125 C 70.6875 119.390625 70.449219 118.441406 70.257812 117.480469 C 70.066406 116.519531 69.925781 115.550781 69.828125 114.578125 C 69.730469 113.601562 69.683594 112.625 69.683594 111.644531 C 69.683594 110.664062 69.730469 109.6875 69.828125 108.710938 C 69.925781 107.734375 70.066406 106.765625 70.257812 105.804688 C 70.449219 104.84375 70.6875 103.894531 70.972656 102.957031 C 71.257812 102.019531 71.585938 101.097656 71.960938 100.191406 C 72.335938 99.289062 72.753906 98.402344 73.21875 97.539062 C 73.679688 96.675781 74.183594 95.835938 74.726562 95.019531 C 75.273438 94.203125 75.855469 93.417969 76.476562 92.660156 C 77.097656 91.902344 77.753906 91.179688 78.449219 90.484375 C 79.140625 89.792969 79.867188 89.136719 80.625 88.511719 C 81.382812 87.890625 82.167969 87.308594 82.984375 86.765625 C 83.796875 86.21875 84.636719 85.714844 85.5 85.253906 C 86.367188 84.792969 87.25 84.375 88.15625 84 C 89.0625 83.625 89.984375 83.292969 90.921875 83.007812 C 91.859375 82.726562 92.808594 82.488281 93.769531 82.296875 C 94.730469 82.105469 95.699219 81.960938 96.675781 81.863281 C 97.648438 81.769531 98.625 81.722656 99.605469 81.722656 C 100.585938 81.722656 101.566406 81.769531 102.539062 81.863281 C 103.515625 81.960938 104.484375 82.105469 105.445312 82.296875 C 106.40625 82.488281 107.355469 82.726562 108.292969 83.007812 C 109.230469 83.292969 110.152344 83.625 111.058594 84 C 111.964844 84.375 112.847656 84.792969 113.710938 85.253906 C 114.578125 85.714844 115.417969 86.21875 116.230469 86.765625 C 117.046875 87.308594 117.832031 87.890625 118.589844 88.511719 C 119.347656 89.136719 120.074219 89.792969 120.765625 90.484375 C 121.457031 91.179688 122.117188 91.902344 122.738281 92.660156 C 123.359375 93.417969 123.941406 94.203125 124.488281 95.019531 C 125.03125 95.835938 125.535156 96.675781 125.996094 97.539062 C 126.457031 98.402344 126.875 99.289062 127.25 100.191406 C 127.625 101.097656 127.957031 102.019531 128.242188 102.957031 C 128.527344 103.894531 128.761719 104.84375 128.953125 105.804688 C 129.144531 106.765625 129.289062 107.734375 129.386719 108.710938 C 129.480469 109.6875 129.53125 110.664062 129.53125 111.644531 Z M 129.53125 111.644531 " fill-opacity="1" fill-rule="nonzero"/></g><path fill="#e6881a" d="M 124.269531 111.644531 C 124.269531 112.453125 124.226562 113.257812 124.148438 114.0625 C 124.070312 114.863281 123.953125 115.664062 123.792969 116.453125 C 123.636719 117.246094 123.441406 118.03125 123.207031 118.800781 C 122.972656 119.574219 122.699219 120.335938 122.390625 121.082031 C 122.082031 121.828125 121.738281 122.554688 121.355469 123.269531 C 120.976562 123.980469 120.558594 124.671875 120.113281 125.34375 C 119.664062 126.015625 119.183594 126.664062 118.671875 127.289062 C 118.15625 127.914062 117.617188 128.511719 117.042969 129.082031 C 116.472656 129.652344 115.875 130.195312 115.25 130.707031 C 114.628906 131.21875 113.980469 131.699219 113.308594 132.148438 C 112.636719 132.597656 111.945312 133.011719 111.230469 133.394531 C 110.519531 133.773438 109.789062 134.117188 109.042969 134.425781 C 108.296875 134.738281 107.539062 135.007812 106.765625 135.242188 C 105.992188 135.476562 105.210938 135.671875 104.417969 135.832031 C 103.625 135.988281 102.828125 136.105469 102.023438 136.1875 C 101.21875 136.265625 100.414062 136.304688 99.605469 136.304688 C 98.800781 136.304688 97.992188 136.265625 97.191406 136.1875 C 96.386719 136.105469 95.589844 135.988281 94.796875 135.832031 C 94.003906 135.671875 93.222656 135.476562 92.449219 135.242188 C 91.675781 135.007812 90.914062 134.738281 90.167969 134.425781 C 89.421875 134.117188 88.695312 133.773438 87.980469 133.394531 C 87.269531 133.011719 86.578125 132.597656 85.90625 132.148438 C 85.234375 131.699219 84.585938 131.21875 83.960938 130.707031 C 83.335938 130.195312 82.738281 129.652344 82.167969 129.082031 C 81.597656 128.511719 81.054688 127.914062 80.542969 127.289062 C 80.03125 126.664062 79.550781 126.015625 79.101562 125.34375 C 78.652344 124.671875 78.238281 123.980469 77.859375 123.269531 C 77.476562 122.554688 77.132812 121.828125 76.824219 121.082031 C 76.515625 120.335938 76.242188 119.574219 76.007812 118.800781 C 75.773438 118.03125 75.578125 117.246094 75.417969 116.453125 C 75.261719 115.664062 75.144531 114.863281 75.066406 114.0625 C 74.984375 113.257812 74.945312 112.453125 74.945312 111.644531 C 74.945312 110.835938 74.984375 110.03125 75.066406 109.226562 C 75.144531 108.421875 75.261719 107.625 75.417969 106.832031 C 75.578125 106.039062 75.773438 105.257812 76.007812 104.484375 C 76.242188 103.710938 76.515625 102.953125 76.824219 102.207031 C 77.132812 101.460938 77.476562 100.730469 77.859375 100.019531 C 78.238281 99.304688 78.652344 98.613281 79.101562 97.941406 C 79.550781 97.269531 80.03125 96.625 80.542969 96 C 81.054688 95.375 81.597656 94.777344 82.167969 94.207031 C 82.738281 93.632812 83.335938 93.09375 83.960938 92.582031 C 84.585938 92.066406 85.234375 91.585938 85.90625 91.140625 C 86.578125 90.691406 87.269531 90.273438 87.980469 89.894531 C 88.695312 89.515625 89.421875 89.167969 90.167969 88.859375 C 90.914062 88.550781 91.675781 88.277344 92.449219 88.042969 C 93.222656 87.808594 94.003906 87.613281 94.796875 87.457031 C 95.589844 87.300781 96.386719 87.179688 97.191406 87.101562 C 97.992188 87.023438 98.800781 86.984375 99.605469 86.984375 C 100.414062 86.984375 101.21875 87.023438 102.023438 87.101562 C 102.828125 87.179688 103.625 87.300781 104.417969 87.457031 C 105.210938 87.613281 105.992188 87.808594 106.765625 88.042969 C 107.539062 88.277344 108.296875 88.550781 109.042969 88.859375 C 109.789062 89.167969 110.519531 89.515625 111.230469 89.894531 C 111.945312 90.273438 112.636719 90.691406 113.308594 91.140625 C 113.980469 91.585938 114.628906 92.066406 115.25 92.582031 C 115.875 93.09375 116.472656 93.632812 117.042969 94.207031 C 117.617188 94.777344 118.15625 95.375 118.671875 96 C 119.183594 96.625 119.664062 97.269531 120.113281 97.941406 C 120.558594 98.613281 120.976562 99.304688 121.355469 100.019531 C 121.738281 100.730469 122.082031 101.460938 122.390625 102.207031 C 122.699219 102.953125 122.972656 103.710938 123.207031 104.484375 C 123.441406 105.257812 123.636719 106.039062 123.792969 106.832031 C 123.953125 107.625 124.070312 108.421875 124.148438 109.226562 C 124.226562 110.03125 124.269531 110.835938 124.269531 111.644531 Z M 124.269531 111.644531 " fill-opacity="1" fill-rule="nonzero"/><path fill="#ffce01" d="M 121.050781 111.644531 C 121.050781 112.347656 121.015625 113.046875 120.949219 113.746094 C 120.878906 114.445312 120.777344 115.136719 120.640625 115.828125 C 120.503906 116.515625 120.332031 117.195312 120.128906 117.867188 C 119.925781 118.539062 119.6875 119.203125 119.417969 119.851562 C 119.152344 120.5 118.851562 121.132812 118.519531 121.753906 C 118.1875 122.371094 117.828125 122.972656 117.4375 123.558594 C 117.046875 124.140625 116.628906 124.707031 116.183594 125.25 C 115.738281 125.792969 115.265625 126.3125 114.769531 126.808594 C 114.273438 127.304688 113.753906 127.773438 113.210938 128.222656 C 112.667969 128.667969 112.105469 129.085938 111.519531 129.472656 C 110.9375 129.863281 110.335938 130.226562 109.714844 130.554688 C 109.097656 130.886719 108.460938 131.1875 107.8125 131.457031 C 107.164062 131.726562 106.503906 131.960938 105.832031 132.164062 C 105.160156 132.367188 104.480469 132.539062 103.789062 132.675781 C 103.101562 132.8125 102.40625 132.917969 101.707031 132.984375 C 101.011719 133.054688 100.308594 133.089844 99.605469 133.089844 C 98.90625 133.089844 98.203125 133.054688 97.503906 132.984375 C 96.804688 132.917969 96.113281 132.8125 95.421875 132.675781 C 94.734375 132.539062 94.054688 132.367188 93.382812 132.164062 C 92.710938 131.960938 92.050781 131.726562 91.398438 131.457031 C 90.75 131.1875 90.117188 130.886719 89.496094 130.554688 C 88.878906 130.226562 88.277344 129.863281 87.691406 129.472656 C 87.109375 129.085938 86.546875 128.667969 86.003906 128.222656 C 85.460938 127.773438 84.941406 127.304688 84.441406 126.808594 C 83.945312 126.3125 83.476562 125.792969 83.03125 125.25 C 82.585938 124.707031 82.167969 124.140625 81.777344 123.558594 C 81.386719 122.972656 81.023438 122.371094 80.695312 121.753906 C 80.363281 121.132812 80.0625 120.5 79.792969 119.851562 C 79.527344 119.203125 79.289062 118.539062 79.085938 117.867188 C 78.882812 117.195312 78.710938 116.515625 78.574219 115.828125 C 78.4375 115.136719 78.335938 114.445312 78.265625 113.746094 C 78.195312 113.046875 78.160156 112.347656 78.160156 111.644531 C 78.160156 110.941406 78.195312 110.242188 78.265625 109.542969 C 78.335938 108.84375 78.4375 108.148438 78.574219 107.460938 C 78.710938 106.769531 78.882812 106.089844 79.085938 105.417969 C 79.289062 104.746094 79.527344 104.085938 79.792969 103.4375 C 80.0625 102.789062 80.363281 102.152344 80.695312 101.535156 C 81.023438 100.914062 81.386719 100.3125 81.777344 99.730469 C 82.167969 99.144531 82.585938 98.582031 83.03125 98.039062 C 83.476562 97.496094 83.945312 96.976562 84.441406 96.480469 C 84.941406 95.984375 85.460938 95.511719 86.003906 95.066406 C 86.546875 94.621094 87.109375 94.203125 87.691406 93.8125 C 88.277344 93.421875 88.878906 93.0625 89.496094 92.730469 C 90.117188 92.398438 90.75 92.101562 91.398438 91.832031 C 92.050781 91.5625 92.710938 91.324219 93.382812 91.121094 C 94.054688 90.917969 94.734375 90.746094 95.421875 90.609375 C 96.113281 90.472656 96.804688 90.371094 97.503906 90.300781 C 98.203125 90.234375 98.90625 90.199219 99.605469 90.199219 C 100.308594 90.199219 101.011719 90.234375 101.707031 90.300781 C 102.40625 90.371094 103.101562 90.472656 103.789062 90.609375 C 104.480469 90.746094 105.160156 90.917969 105.832031 91.121094 C 106.503906 91.324219 107.164062 91.5625 107.8125 91.832031 C 108.460938 92.101562 109.097656 92.398438 109.714844 92.730469 C 110.335938 93.0625 110.9375 93.421875 111.519531 93.8125 C 112.105469 94.203125 112.667969 94.621094 113.210938 95.066406 C 113.753906 95.511719 114.273438 95.984375 114.769531 96.480469 C 115.265625 96.976562 115.738281 97.496094 116.183594 98.039062 C 116.628906 98.582031 117.046875 99.144531 117.4375 99.730469 C 117.828125 100.3125 118.1875 100.914062 118.519531 101.535156 C 118.851562 102.152344 119.152344 102.789062 119.417969 103.4375 C 119.6875 104.085938 119.925781 104.746094 120.128906 105.417969 C 120.332031 106.089844 120.503906 106.769531 120.640625 107.460938 C 120.777344 108.148438 120.878906 108.84375 120.949219 109.542969 C 121.015625 110.242188 121.050781 110.941406 121.050781 111.644531 Z M 121.050781 111.644531 " fill-opacity="1" fill-rule="nonzero"/><path fill="#e6881a" d="M 100.039062 97.269531 L 91.59375 103.160156 L 91.59375 108.949219 L 91.730469 109.144531 L 97.941406 104.808594 L 97.941406 123.863281 L 102.925781 123.863281 L 102.925781 98.777344 C 102.929688 97.289062 101.257812 96.417969 100.039062 97.269531 Z M 100.039062 97.269531 " fill-opacity="1" fill-rule="nonzero"/><path fill="#e6881a" d="M 92.699219 121.367188 L 107.617188 121.367188 L 107.617188 126.351562 L 92.699219 126.351562 Z M 92.699219 121.367188 " fill-opacity="1" fill-rule="nonzero"/></svg>