<svg xmlns="http://www.w3.org/2000/svg" xmlns:xlink="http://www.w3.org/1999/xlink" width="200" zoomAndPan="magnify" viewBox="0 0 150 187.499995" height="250" preserveAspectRatio="xMidYMid meet" version="1.0"><defs><clipPath id="a309924215"><path d="M 0.199219 4 L 141 4 L 141 185 L 0.199219 185 Z M 0.199219 4 " clip-rule="nonzero"/></clipPath><clipPath id="bdc3962589"><path d="M 70.765625 -29.015625 L 210.507812 38.941406 L 139.894531 184.140625 L 0.152344 116.183594 Z M 70.765625 -29.015625 " clip-rule="nonzero"/></clipPath><clipPath id="505e5962a7"><path d="M 140.636719 4.960938 L 139.9375 184.046875 L 0.199219 116.089844 Z M 140.636719 4.960938 " clip-rule="nonzero"/></clipPath><clipPath id="cc5339e247"><path d="M 71.492188 66.179688 L 131.332031 66.179688 L 131.332031 126.019531 L 71.492188 126.019531 Z M 71.492188 66.179688 " clip-rule="nonzero"/></clipPath></defs><g clip-path="url(#a309924215)"><g clip-path="url(#bdc3962589)"><g clip-path="url(#505e5962a7)"><path fill="#9233ff" d="M 70.765625 -29.015625 L 210.507812 38.941406 L 139.894531 184.140625 L 0.152344 116.183594 Z M 70.765625 -29.015625 " fill-opacity="1" fill-rule="nonzero"/></g></g></g><g clip-path="url(#cc5339e247)"><path fill="#ffde59" d="M 131.332031 96.097656 C 131.332031 97.074219 131.285156 98.054688 131.191406 99.027344 C 131.09375 100.003906 130.949219 100.972656 130.757812 101.933594 C 130.566406 102.894531 130.328125 103.84375 130.046875 104.78125 C 129.761719 105.71875 129.429688 106.640625 129.054688 107.546875 C 128.679688 108.449219 128.261719 109.335938 127.800781 110.199219 C 127.339844 111.0625 126.835938 111.902344 126.292969 112.71875 C 125.746094 113.53125 125.164062 114.320312 124.542969 115.074219 C 123.921875 115.832031 123.261719 116.558594 122.570312 117.25 C 121.878906 117.945312 121.152344 118.601562 120.394531 119.222656 C 119.636719 119.84375 118.851562 120.429688 118.035156 120.972656 C 117.222656 121.515625 116.382812 122.019531 115.515625 122.480469 C 114.652344 122.945312 113.769531 123.363281 112.863281 123.738281 C 111.957031 124.113281 111.035156 124.441406 110.097656 124.726562 C 109.160156 125.011719 108.210938 125.25 107.25 125.441406 C 106.289062 125.628906 105.320312 125.773438 104.34375 125.871094 C 103.371094 125.964844 102.394531 126.015625 101.414062 126.015625 C 100.433594 126.015625 99.457031 125.964844 98.480469 125.871094 C 97.503906 125.773438 96.535156 125.628906 95.574219 125.441406 C 94.613281 125.25 93.664062 125.011719 92.726562 124.726562 C 91.789062 124.441406 90.867188 124.113281 89.960938 123.738281 C 89.058594 123.363281 88.171875 122.945312 87.308594 122.480469 C 86.445312 122.019531 85.605469 121.515625 84.789062 120.972656 C 83.976562 120.429688 83.1875 119.84375 82.429688 119.222656 C 81.671875 118.601562 80.949219 117.945312 80.253906 117.25 C 79.5625 116.558594 78.90625 115.832031 78.285156 115.074219 C 77.660156 114.320312 77.078125 113.53125 76.535156 112.71875 C 75.988281 111.902344 75.488281 111.0625 75.023438 110.199219 C 74.5625 109.335938 74.144531 108.449219 73.769531 107.546875 C 73.394531 106.640625 73.066406 105.71875 72.78125 104.78125 C 72.496094 103.84375 72.257812 102.894531 72.066406 101.933594 C 71.875 100.972656 71.730469 100.003906 71.636719 99.027344 C 71.539062 98.054688 71.492188 97.074219 71.492188 96.097656 C 71.492188 95.117188 71.539062 94.140625 71.636719 93.164062 C 71.730469 92.1875 71.875 91.21875 72.066406 90.257812 C 72.257812 89.296875 72.496094 88.347656 72.78125 87.410156 C 73.066406 86.472656 73.394531 85.550781 73.769531 84.648438 C 74.144531 83.742188 74.5625 82.855469 75.023438 81.992188 C 75.488281 81.128906 75.988281 80.289062 76.535156 79.472656 C 77.078125 78.660156 77.660156 77.875 78.285156 77.117188 C 78.90625 76.359375 79.5625 75.632812 80.253906 74.941406 C 80.949219 74.246094 81.671875 73.589844 82.429688 72.96875 C 83.1875 72.347656 83.976562 71.765625 84.789062 71.21875 C 85.605469 70.675781 86.445312 70.171875 87.308594 69.710938 C 88.171875 69.25 89.058594 68.832031 89.960938 68.457031 C 90.867188 68.082031 91.789062 67.75 92.726562 67.464844 C 93.664062 67.183594 94.613281 66.945312 95.574219 66.753906 C 96.535156 66.5625 97.503906 66.417969 98.480469 66.320312 C 99.457031 66.226562 100.433594 66.179688 101.414062 66.179688 C 102.394531 66.179688 103.371094 66.226562 104.34375 66.320312 C 105.320312 66.417969 106.289062 66.5625 107.25 66.753906 C 108.210938 66.945312 109.160156 67.183594 110.097656 67.464844 C 111.035156 67.75 111.957031 68.082031 112.863281 68.457031 C 113.769531 68.832031 114.652344 69.25 115.515625 69.710938 C 116.382812 70.171875 117.222656 70.675781 118.035156 71.21875 C 118.851562 71.765625 119.636719 72.347656 120.394531 72.96875 C 121.152344 73.589844 121.878906 74.246094 122.570312 74.941406 C 123.261719 75.632812 123.921875 76.359375 124.542969 77.117188 C 125.164062 77.875 125.746094 78.660156 126.292969 79.472656 C 126.835938 80.289062 127.339844 81.128906 127.800781 81.992188 C 128.261719 82.855469 128.679688 83.742188 129.054688 84.648438 C 129.429688 85.550781 129.761719 86.472656 130.046875 87.410156 C 130.328125 88.347656 130.566406 89.296875 130.757812 90.257812 C 130.949219 91.21875 131.09375 92.1875 131.191406 93.164062 C 131.285156 94.140625 131.332031 95.117188 131.332031 96.097656 Z M 131.332031 96.097656 " fill-opacity="1" fill-rule="nonzero"/></g><path fill="#ff914d" d="M 99.273438 123.050781 C 99.246094 123.050781 99.222656 123.050781 99.195312 123.050781 C 97.710938 122.929688 96.230469 122.683594 94.792969 122.324219 C 94.304688 122.199219 94.011719 121.707031 94.132812 121.21875 C 94.253906 120.734375 94.75 120.4375 95.234375 120.5625 C 96.574219 120.898438 97.957031 121.128906 99.34375 121.238281 C 99.84375 121.28125 100.214844 121.71875 100.175781 122.21875 C 100.136719 122.691406 99.738281 123.050781 99.273438 123.050781 Z M 103.585938 123.050781 C 103.117188 123.050781 102.71875 122.691406 102.679688 122.214844 C 102.640625 121.714844 103.011719 121.277344 103.511719 121.238281 C 104.894531 121.121094 106.277344 120.890625 107.621094 120.554688 C 108.105469 120.429688 108.601562 120.726562 108.722656 121.210938 C 108.84375 121.695312 108.550781 122.191406 108.066406 122.3125 C 106.625 122.679688 105.144531 122.925781 103.660156 123.046875 C 103.636719 123.046875 103.609375 123.050781 103.585938 123.050781 Z M 90.925781 120.953125 C 90.804688 120.953125 90.683594 120.925781 90.5625 120.875 C 89.203125 120.277344 87.882812 119.5625 86.636719 118.75 C 86.214844 118.472656 86.097656 117.914062 86.371094 117.492188 C 86.644531 117.074219 87.207031 116.953125 87.628906 117.226562 C 88.792969 117.988281 90.023438 118.65625 91.292969 119.210938 C 91.753906 119.414062 91.960938 119.949219 91.761719 120.40625 C 91.609375 120.75 91.277344 120.953125 90.925781 120.953125 Z M 111.925781 120.941406 C 111.574219 120.941406 111.242188 120.738281 111.09375 120.398438 C 110.890625 119.9375 111.097656 119.402344 111.558594 119.199219 C 112.824219 118.644531 114.058594 117.976562 115.21875 117.214844 C 115.636719 116.9375 116.199219 117.058594 116.476562 117.476562 C 116.75 117.894531 116.632812 118.460938 116.214844 118.734375 C 114.96875 119.546875 113.648438 120.265625 112.289062 120.863281 C 112.171875 120.914062 112.046875 120.941406 111.925781 120.941406 Z M 83.722656 116.246094 C 83.503906 116.246094 83.285156 116.167969 83.109375 116.007812 C 82.015625 115 80.996094 113.894531 80.082031 112.726562 C 79.773438 112.328125 79.84375 111.757812 80.238281 111.449219 C 80.636719 111.140625 81.203125 111.210938 81.515625 111.605469 C 82.367188 112.699219 83.316406 113.730469 84.339844 114.667969 C 84.707031 115.007812 84.730469 115.582031 84.394531 115.953125 C 84.214844 116.148438 83.96875 116.246094 83.722656 116.246094 Z M 119.121094 116.230469 C 118.875 116.230469 118.628906 116.128906 118.453125 115.9375 C 118.113281 115.566406 118.136719 114.992188 118.503906 114.652344 C 119.523438 113.710938 120.472656 112.679688 121.328125 111.585938 C 121.636719 111.191406 122.207031 111.121094 122.601562 111.429688 C 122.996094 111.738281 123.066406 112.308594 122.757812 112.703125 C 121.847656 113.875 120.828125 114.980469 119.734375 115.988281 C 119.558594 116.148438 119.339844 116.230469 119.121094 116.230469 Z M 78.433594 109.464844 C 78.109375 109.464844 77.796875 109.292969 77.632812 108.992188 C 76.921875 107.683594 76.320312 106.308594 75.835938 104.90625 C 75.671875 104.433594 75.921875 103.914062 76.398438 103.753906 C 76.871094 103.589844 77.386719 103.839844 77.550781 104.316406 C 78.003906 105.625 78.566406 106.90625 79.230469 108.125 C 79.46875 108.5625 79.304688 109.117188 78.863281 109.355469 C 78.726562 109.429688 78.578125 109.464844 78.433594 109.464844 Z M 124.40625 109.441406 C 124.257812 109.441406 124.109375 109.40625 123.972656 109.332031 C 123.53125 109.09375 123.367188 108.542969 123.609375 108.101562 C 124.269531 106.878906 124.832031 105.597656 125.285156 104.285156 C 125.445312 103.8125 125.964844 103.558594 126.4375 103.722656 C 126.910156 103.882812 127.164062 104.398438 127 104.875 C 126.519531 106.28125 125.914062 107.65625 125.203125 108.964844 C 125.039062 109.269531 124.726562 109.441406 124.40625 109.441406 Z M 75.628906 101.335938 C 75.195312 101.335938 74.808594 101.023438 74.734375 100.578125 C 74.492188 99.117188 74.367188 97.621094 74.367188 96.128906 C 74.367188 95.628906 74.773438 95.21875 75.273438 95.21875 C 75.777344 95.21875 76.183594 95.625 76.183594 96.125 C 76.183594 97.519531 76.300781 98.917969 76.527344 100.277344 C 76.609375 100.773438 76.277344 101.242188 75.78125 101.324219 C 75.730469 101.332031 75.679688 101.335938 75.628906 101.335938 Z M 127.199219 101.304688 C 127.148438 101.304688 127.101562 101.300781 127.050781 101.292969 C 126.554688 101.210938 126.21875 100.742188 126.300781 100.246094 C 126.527344 98.886719 126.640625 97.488281 126.640625 96.097656 L 126.640625 96.035156 C 126.640625 95.53125 127.046875 95.125 127.550781 95.125 C 128.050781 95.125 128.457031 95.53125 128.457031 96.035156 L 128.457031 96.097656 C 128.457031 97.585938 128.335938 99.085938 128.09375 100.542969 C 128.019531 100.988281 127.636719 101.304688 127.199219 101.304688 Z M 75.621094 92.734375 C 75.574219 92.734375 75.523438 92.730469 75.472656 92.722656 C 74.980469 92.640625 74.644531 92.171875 74.726562 91.679688 C 74.96875 90.210938 75.332031 88.753906 75.8125 87.347656 C 75.976562 86.871094 76.492188 86.621094 76.96875 86.78125 C 77.441406 86.945312 77.695312 87.460938 77.53125 87.933594 C 77.085938 89.246094 76.742188 90.605469 76.519531 91.972656 C 76.445312 92.417969 76.058594 92.734375 75.621094 92.734375 Z M 127.1875 92.640625 C 126.75 92.640625 126.367188 92.328125 126.292969 91.882812 C 126.0625 90.515625 125.71875 89.160156 125.265625 87.847656 C 125.101562 87.375 125.351562 86.859375 125.824219 86.695312 C 126.300781 86.53125 126.816406 86.78125 126.980469 87.253906 C 127.464844 88.660156 127.835938 90.117188 128.082031 91.582031 C 128.167969 92.078125 127.832031 92.546875 127.339844 92.628906 C 127.289062 92.636719 127.238281 92.640625 127.1875 92.640625 Z M 78.402344 84.59375 C 78.257812 84.59375 78.109375 84.558594 77.972656 84.484375 C 77.53125 84.246094 77.367188 83.695312 77.605469 83.253906 C 78.3125 81.945312 79.132812 80.6875 80.046875 79.511719 C 80.355469 79.117188 80.925781 79.046875 81.320312 79.355469 C 81.714844 79.660156 81.789062 80.230469 81.480469 80.628906 C 80.628906 81.722656 79.863281 82.898438 79.203125 84.117188 C 79.039062 84.421875 78.726562 84.59375 78.402344 84.59375 Z M 124.378906 84.515625 C 124.058594 84.515625 123.746094 84.34375 123.582031 84.042969 C 122.917969 82.824219 122.148438 81.65625 121.292969 80.5625 C 120.984375 80.167969 121.054688 79.597656 121.449219 79.289062 C 121.84375 78.980469 122.414062 79.046875 122.722656 79.441406 C 123.640625 80.613281 124.464844 81.867188 125.175781 83.171875 C 125.417969 83.613281 125.253906 84.164062 124.8125 84.402344 C 124.675781 84.480469 124.527344 84.515625 124.378906 84.515625 Z M 83.683594 77.800781 C 83.4375 77.800781 83.195312 77.703125 83.015625 77.507812 C 82.675781 77.140625 82.699219 76.566406 83.066406 76.226562 C 84.160156 75.214844 85.34375 74.292969 86.585938 73.476562 C 87.003906 73.203125 87.566406 73.316406 87.84375 73.738281 C 88.117188 74.15625 88 74.71875 87.582031 74.996094 C 86.425781 75.753906 85.320312 76.617188 84.300781 77.558594 C 84.125 77.71875 83.902344 77.800781 83.683594 77.800781 Z M 119.078125 77.742188 C 118.859375 77.742188 118.636719 77.664062 118.464844 77.503906 C 117.441406 76.566406 116.332031 75.703125 115.171875 74.949219 C 114.75 74.671875 114.632812 74.109375 114.90625 73.691406 C 115.179688 73.269531 115.742188 73.152344 116.164062 73.425781 C 117.410156 74.238281 118.59375 75.160156 119.691406 76.164062 C 120.0625 76.503906 120.085938 77.078125 119.746094 77.449219 C 119.566406 77.644531 119.324219 77.742188 119.078125 77.742188 Z M 90.875 73.082031 C 90.523438 73.082031 90.191406 72.878906 90.042969 72.539062 C 89.839844 72.082031 90.046875 71.546875 90.507812 71.34375 C 91.867188 70.742188 93.289062 70.253906 94.730469 69.886719 C 95.214844 69.761719 95.707031 70.054688 95.832031 70.542969 C 95.957031 71.027344 95.660156 71.523438 95.175781 71.644531 C 93.832031 71.988281 92.507812 72.445312 91.238281 73.003906 C 91.121094 73.058594 90.996094 73.082031 90.875 73.082031 Z M 111.867188 73.042969 C 111.746094 73.042969 111.625 73.019531 111.503906 72.96875 C 110.234375 72.414062 108.90625 71.960938 107.5625 71.625 C 107.074219 71.5 106.78125 71.007812 106.902344 70.523438 C 107.023438 70.035156 107.515625 69.742188 108.003906 69.863281 C 109.445312 70.222656 110.867188 70.707031 112.234375 71.304688 C 112.691406 71.503906 112.902344 72.039062 112.699219 72.5 C 112.550781 72.839844 112.21875 73.042969 111.867188 73.042969 Z M 99.207031 70.960938 C 98.738281 70.960938 98.34375 70.601562 98.304688 70.128906 C 98.261719 69.628906 98.632812 69.191406 99.132812 69.148438 C 100.605469 69.023438 102.121094 69.023438 103.59375 69.140625 C 104.09375 69.179688 104.46875 69.617188 104.429688 70.117188 C 104.386719 70.617188 103.953125 70.984375 103.453125 70.949219 C 102.074219 70.839844 100.65625 70.84375 99.285156 70.957031 C 99.257812 70.960938 99.230469 70.960938 99.207031 70.960938 Z M 99.207031 70.960938 " fill-opacity="1" fill-rule="nonzero"/><path fill="#ff914d" d="M 112.179688 105.800781 C 112 105.652344 111.769531 105.582031 111.53125 105.59375 C 111.441406 105.601562 103.21875 106.007812 100.570312 106.039062 C 100.601562 106.003906 100.625 105.972656 100.648438 105.945312 C 101.542969 104.820312 102.519531 103.777344 103.464844 102.761719 C 104.46875 101.679688 105.511719 100.5625 106.484375 99.324219 C 108.894531 96.257812 111.601562 92.144531 111.117188 87.550781 C 110.601562 82.757812 105.777344 80.617188 101.226562 80.617188 C 98.714844 80.617188 96.292969 81.25 94.40625 82.386719 C 94.371094 82.414062 90.257812 85.230469 90.132812 86.089844 C 90.097656 86.296875 90.183594 86.539062 90.347656 86.699219 C 90.601562 86.960938 91.082031 87.289062 91.679688 87.707031 C 92.285156 88.125 93.921875 89.804688 94.25 89.90625 C 94.578125 90.015625 94.953125 89.941406 95.1875 89.710938 L 95.492188 89.421875 C 95.71875 89.199219 95.964844 88.960938 96.226562 88.738281 C 97.917969 87.28125 99.835938 85.933594 102.273438 86.210938 C 103.191406 86.316406 103.816406 86.695312 104.1875 87.375 C 105.113281 89.082031 104.238281 92.285156 103.246094 93.660156 C 101.871094 95.550781 100.335938 97.40625 98.878906 99.132812 C 96.632812 101.785156 94.742188 103.941406 92.921875 105.910156 C 92.003906 106.90625 90.742188 109.367188 91.472656 110.722656 C 91.757812 111.25 92.320312 111.558594 93.011719 111.558594 C 93.738281 111.566406 94.535156 111.570312 95.367188 111.570312 C 100.640625 111.570312 110.652344 111.40625 111.839844 111.070312 C 112.199219 110.972656 112.445312 110.679688 112.445312 110.355469 L 112.445312 106.347656 C 112.445312 106.140625 112.347656 105.945312 112.179688 105.800781 Z M 112.179688 105.800781 " fill-opacity="1" fill-rule="evenodd"/></svg>