<svg id="visual" viewBox="0 0 900 600" width="900" height="600" xmlns="http://www.w3.org/2000/svg" xmlns:xlink="http://www.w3.org/1999/xlink" version="1.1"><path d="M0 103L13.7 109C27.3 115 54.7 127 82 133C109.3 139 136.7 139 163.8 129C191 119 218 99 245.2 93C272.3 87 299.7 95 327 103C354.3 111 381.7 119 409 130C436.3 141 463.7 155 491 145C518.3 135 545.7 101 573 95C600.3 89 627.7 111 654.8 121C682 131 709 129 736.2 133C763.3 137 790.7 147 818 150C845.3 153 872.7 149 886.3 147L900 145L900 0L886.3 0C872.7 0 845.3 0 818 0C790.7 0 763.3 0 736.2 0C709 0 682 0 654.8 0C627.7 0 600.3 0 573 0C545.7 0 518.3 0 491 0C463.7 0 436.3 0 409 0C381.7 0 354.3 0 327 0C299.7 0 272.3 0 245.2 0C218 0 191 0 163.8 0C136.7 0 109.3 0 82 0C54.7 0 27.3 0 13.7 0L0 0Z" fill="#086f88"></path><path d="M0 235L13.7 252C27.3 269 54.7 303 82 315C109.3 327 136.7 317 163.8 317C191 317 218 327 245.2 319C272.3 311 299.7 285 327 283C354.3 281 381.7 303 409 310C436.3 317 463.7 309 491 292C518.3 275 545.7 249 573 260C600.3 271 627.7 319 654.8 346C682 373 709 379 736.2 379C763.3 379 790.7 373 818 364C845.3 355 872.7 343 886.3 337L900 331L900 143L886.3 145C872.7 147 845.3 151 818 148C790.7 145 763.3 135 736.2 131C709 127 682 129 654.8 119C627.7 109 600.3 87 573 93C545.7 99 518.3 133 491 143C463.7 153 436.3 139 409 128C381.7 117 354.3 109 327 101C299.7 93 272.3 85 245.2 91C218 97 191 117 163.8 127C136.7 137 109.3 137 82 131C54.7 125 27.3 113 13.7 107L0 101Z" fill="#0b8aa9"></path><path d="M0 475L13.7 475C27.3 475 54.7 475 82 476C109.3 477 136.7 479 163.8 490C191 501 218 521 245.2 522C272.3 523 299.7 505 327 505C354.3 505 381.7 523 409 531C436.3 539 463.7 537 491 525C518.3 513 545.7 491 573 487C600.3 483 627.7 497 654.8 506C682 515 709 519 736.2 524C763.3 529 790.7 535 818 538C845.3 541 872.7 541 886.3 541L900 541L900 329L886.3 335C872.7 341 845.3 353 818 362C790.7 371 763.3 377 736.2 377C709 377 682 371 654.8 344C627.7 317 600.3 269 573 258C545.7 247 518.3 273 491 290C463.7 307 436.3 315 409 308C381.7 301 354.3 279 327 281C299.7 283 272.3 309 245.2 317C218 325 191 315 163.8 315C136.7 315 109.3 325 82 313C54.7 301 27.3 267 13.7 250L0 233Z" fill="#31a1c1"></path><path d="M0 601L13.7 601C27.3 601 54.7 601 82 601C109.3 601 136.7 601 163.8 601C191 601 218 601 245.2 601C272.3 601 299.7 601 327 601C354.3 601 381.7 601 409 601C436.3 601 463.7 601 491 601C518.3 601 545.7 601 573 601C600.3 601 627.7 601 654.8 601C682 601 709 601 736.2 601C763.3 601 790.7 601 818 601C845.3 601 872.7 601 886.3 601L900 601L900 539L886.3 539C872.7 539 845.3 539 818 536C790.7 533 763.3 527 736.2 522C709 517 682 513 654.8 504C627.7 495 600.3 481 573 485C545.7 489 518.3 511 491 523C463.7 535 436.3 537 409 529C381.7 521 354.3 503 327 503C299.7 503 272.3 521 245.2 520C218 519 191 499 163.8 488C136.7 477 109.3 475 82 474C54.7 473 27.3 473 13.7 473L0 473Z" fill="#59b4ce"></path></svg>